<?xml version="1.0" encoding="UTF-8"?>
<svg width="24px" height="24px" viewBox="0 0 24 24" version="1.1" xmlns="http://www.w3.org/2000/svg" xmlns:xlink="http://www.w3.org/1999/xlink">
    <!-- Generator: sketchtool 61.1 (101010) - https://sketch.com -->
    <title>884BC7EC-643A-4FB6-A537-5B5CE9F3336B</title>
    <desc>Created with sketchtool.</desc>
    <g id="Asset-Artboard-Page" stroke="none" stroke-width="1" fill="none" fill-rule="evenodd">
        <g id="2.-icons/24px" fill="#006341" fill-rule="nonzero">
            <g id="icon-5.-pieces/platform-agnostic/icons/miscellaneous/icon-chat">
                <path d="M15,10.5 L15,12 L6,12 L6,10.5 L15,10.5 Z M18,7.5 L18,9 L6,9 L6,7.5 L18,7.5 Z M12,16.5 L7.5,21 L7.5,16.5 L6,16.5 C4.34314575,16.5 3,15.1568542 3,13.5 L3,6 C3,4.34314575 4.34314575,3 6,3 L18,3 C19.6568542,3 21,4.34314575 21,6 L21,13.5 C21,15.1568542 19.6568542,16.5 18,16.5 L12,16.5 Z M9,17.3786802 L11.3786797,15 L18,15 C18.8284271,15 19.5,14.3284276 19.5,13.5 L19.5,6 C19.5,5.17157291 18.8284271,4.5 18,4.5 L6,4.5 C5.17157288,4.5 4.5,5.17157291 4.5,6 L4.5,13.5 C4.5,14.3284276 5.17157288,15 6,15 L9,15 L9,17.3786802 Z" id="icon-chat"></path>
            </g>
        </g>
    </g>
</svg>