<?xml version="1.0" encoding="UTF-8"?>
<svg viewBox="0 0 24 24" version="1.1" xmlns="http://www.w3.org/2000/svg" xmlns:xlink="http://www.w3.org/1999/xlink">
    <!-- Generator: sketchtool 61.1 (101010) - https://sketch.com -->
    <title>D9EF99C8-130B-4A2A-AD8B-E16473D64D58</title>
    <desc>Created with sketchtool.</desc>
    <defs>
        <path d="M14.3598347,4.01516497 L12.6360063,4.01516497 C12.4657026,4.01516497 12.3004698,4.07312554 12.167485,4.17951336 L10.703356,5.35081658 C9.69615496,6.15657738 9.10983467,7.37648993 9.10983467,8.66633656 L9.10983467,15.8639934 C9.10983467,17.15384 9.69615496,18.3737526 10.703356,19.1795134 L12.167485,20.3508166 C12.3004698,20.4572044 12.4657026,20.515165 12.6360063,20.515165 L14.3598347,20.515165 L14.3598347,17.515165 L13.6098347,17.515165 C12.367194,17.515165 11.3598347,16.5078057 11.3598347,15.265165 L11.3598347,9.26516497 C11.3598347,8.02252428 12.367194,7.01516497 13.6098347,7.01516497 L14.3598347,7.01516497 L14.3598347,4.01516497 Z M12.6360063,2.51516497 L15.8598347,2.51516497 L15.8598347,8.51516497 L13.6098347,8.51516497 C13.1956211,8.51516497 12.8598347,8.85095141 12.8598347,9.26516497 L12.8598347,15.265165 C12.8598347,15.6793785 13.1956211,16.015165 13.6098347,16.015165 L15.8598347,16.015165 L15.8598347,22.015165 L12.6360063,22.015165 C12.1250954,22.015165 11.6293968,21.8412833 11.2304424,21.5221198 L9.76631339,20.3508166 C8.40328953,19.2603975 7.60983467,17.6095156 7.60983467,15.8639934 L7.60983467,8.66633656 C7.60983467,6.92081435 8.40328953,5.26993245 9.76631339,4.17951336 L11.2304424,3.00821015 C11.6293968,2.68904666 12.1250954,2.51516497 12.6360063,2.51516497 Z" id="path-1"></path>
    </defs>
    <g id="Asset-Artboard-Page" stroke="none" stroke-width="1" fill="none" fill-rule="evenodd">
        <g id="icon-5.-pieces/platform-agnostic/icons/miscellaneous/icon-phone">
            <mask id="mask-2" fill="white">
                <use xlink:href="#path-1"></use>
            </mask>
            <use id="icon-phone" fill="#006341" fill-rule="nonzero" transform="translate(11.734835, 12.265165) rotate(-45.000000) translate(-11.734835, -12.265165) " xlink:href="#path-1"></use>
        </g>
    </g>
</svg>