<?xml version="1.0" encoding="UTF-8"?>
<svg width="9px" height="16px" viewBox="0 0 9 16" version="1.1" xmlns="http://www.w3.org/2000/svg" xmlns:xlink="http://www.w3.org/1999/xlink">
    <!-- Generator: sketchtool 61.1 (101010) - https://sketch.com -->
    <title>647625B0-C9EC-414A-97E5-C5A49B248BDB</title>
    <desc>Created with sketchtool.</desc>
    <g id="FINAL" stroke="none" stroke-width="1" fill="none" fill-rule="evenodd">
        <g id="FINAL-WEB" transform="translate(-286.000000, -587.000000)" fill="#009639" fill-rule="nonzero">
            <g id="Group-17" transform="translate(286.000000, 584.000000)">
                <g id="demo-icon" transform="translate(-0.000000, 3.000000)">
                    <g id="Group-13">
                        <path d="M7.58333329,0 C8.1816418,0 8.66666667,0.511674571 8.66666667,1.14285714 L8.66666667,14.8571429 C8.66666667,15.4883254 8.1816418,16 7.58333329,16 L1.08333333,16 C0.485024854,16 0,15.4883254 0,14.8571429 L0,1.14285714 C0,0.511674571 0.485024854,0 1.08333333,0 L7.58333329,0 Z M7.58274999,12.5713333 L1.08276389,12.5713333 L1.08333333,14.8571429 L7.58333329,14.8571429 L7.58274999,12.5713333 Z M4.33333333,13.1428571 C4.63248757,13.1428571 4.87499999,13.3986944 4.87499999,13.7142857 C4.87499999,14.029877 4.63248757,14.2857143 4.33333333,14.2857143 C4.03417909,14.2857143 3.79166666,14.029877 3.79166666,13.7142857 C3.79166666,13.3986944 4.03417909,13.1428571 4.33333333,13.1428571 Z M7.58274999,3.428 L1.08276389,3.428 L1.08276389,11.428 L7.58274999,11.428 L7.58274999,3.428 Z M7.58333329,1.14285714 L1.08333333,1.14285714 L1.08276389,2.28533333 L7.58274999,2.28533333 L7.58333329,1.14285714 Z" id="Combined-Shape"></path>
                        <polygon id="Rectangle" points="3.33333333 6 6 7.33333333 3.33333333 8.66666667"></polygon>
                    </g>
                </g>
            </g>
        </g>
    </g>
</svg>