<?xml version="1.0" encoding="UTF-8"?>
<svg viewBox="0 0 22 19" version="1.1" xmlns="http://www.w3.org/2000/svg" xmlns:xlink="http://www.w3.org/1999/xlink">
    <!-- Generator: sketchtool 55.1 (78136) - https://sketchapp.com -->
    <title>B4F28547-54F8-40FC-8BEF-08E6368ED9B0</title>
    <desc>Created with sketchtool.</desc>
    <defs>
        <path d="M11.2500003,6.75000018 C11.2500003,6.33578662 11.5857867,6.00000018 12.0000003,6.00000018 C12.4142138,6.00000018 12.7500003,6.33578662 12.7500003,6.75000018 L12.7500003,14.2500002 C12.7500003,14.6642137 12.4142138,15.0000002 12.0000003,15.0000002 C11.5857867,15.0000002 11.2500003,14.6642137 11.2500003,14.2500002 L11.2500003,6.75000018 Z M12,18.0750003 C11.5443651,18.0750003 11.175,17.7056352 11.175,17.2500003 C11.175,16.7943653 11.5443651,16.4250003 12,16.4250003 C12.4556349,16.4250003 12.825,16.7943653 12.825,17.2500003 C12.825,17.7056352 12.4556349,18.0750003 12,18.0750003 Z M13.2623957,5.10853244 C13.1458374,4.926827 12.9914317,4.77242123 12.8097262,4.65586295 C12.112431,4.20857016 11.184559,4.41123719 10.7372663,5.10853244 L2.98732062,17.1901049 C2.83229285,17.4317814 2.74988535,17.7128746 2.74988535,18.0000002 C2.74988535,18.8284273 3.42145822,19.5000002 4.24988535,19.5000002 L19.7497766,19.5000002 C20.0369022,19.5000002 20.3179954,19.4175927 20.5596718,19.2625649 C21.2569671,18.8152721 21.4596341,17.8874002 21.0123413,17.1901049 L13.2623957,5.10853244 Z M14.5249607,4.29863715 L22.2749065,16.3802099 C23.1694921,17.7748005 22.764158,19.6305444 21.3695675,20.52513 C20.8862146,20.8351855 20.3240282,21.0000005 19.749777,21.0000005 L4.24988535,21.0000005 C2.59303112,21.0000005 1.24988535,19.6568548 1.24988535,18.0000005 C1.24988535,17.4257492 1.41470034,16.8635628 1.7247559,16.3802099 L9.4747017,4.29863715 C10.3692873,2.90404662 12.2250312,2.49871254 13.6196217,3.39329815 C13.9830326,3.62641472 14.2918441,3.93522626 14.5249607,4.29863715 Z" id="path-1"></path>
    </defs>
    <g id="Password-change-v2" stroke="none" stroke-width="1" fill="none" fill-rule="evenodd">
        <g id="1440-Change-password-Fail" transform="translate(-331.000000, -189.000000)">
            <g id="Web---Components/Alerts/Block/Desktop-&amp;-Tablet/Success" transform="translate(310.000000, 159.000000)">
                <g id="icon-warning" transform="translate(20.000000, 28.000000)">
                    <g id="Icon">
                        <mask id="mask-2" fill="white">
                            <use xlink:href="#path-1"></use>
                        </mask>
                        <use id="icon-warning" fill="#009639" fill-rule="nonzero" xlink:href="#path-1"></use>
                        <g id="Icon-colour-mask" mask="url(#mask-2)" fill="#D22630" fill-rule="nonzero">
                            <rect id="Rectangle" x="0" y="0" width="24" height="24"></rect>
                        </g>
                    </g>
                </g>
            </g>
        </g>
    </g>
</svg>