<?xml version="1.0" encoding="UTF-8"?>
<svg viewBox="0 0 22 19" version="1.1" xmlns="http://www.w3.org/2000/svg" xmlns:xlink="http://www.w3.org/1999/xlink">
    <!-- Generator: sketchtool 63.1 (101010) - https://sketch.com -->
    <title>6884B27C-CCDF-4996-9F76-486601007014</title>
    <desc>Created with sketchtool.</desc>
    <g id="Quote_FULL-VERSION" stroke="none" stroke-width="1" fill="none" fill-rule="evenodd">
        <g id="OB_System-error_2" transform="translate(-21.000000, -102.000000)" fill="#D22630">
            <g id="2.-icons/24px" transform="translate(21.000000, 102.000000)">
                <g id="icon">
                    <path d="M11,14.425 C11.4556349,14.425 11.825,14.7943651 11.825,15.25 C11.825,15.7056349 11.4556349,16.075 11,16.075 C10.5443651,16.075 10.175,15.7056349 10.175,15.25 C10.175,14.7943651 10.5443651,14.425 11,14.425 Z M11,4 C11.4142136,4 11.75,4.33578644 11.75,4.75 L11.75,12.25 C11.75,12.6642136 11.4142136,13 11,13 C10.5857864,13 10.25,12.6642136 10.25,12.25 L10.25,4.75 C10.25,4.33578644 10.5857864,4 11,4 Z M12.2623958,3.1085323 C12.1458375,2.92682686 11.9914317,2.77242109 11.8097263,2.65586281 C11.112431,2.20857002 10.1845591,2.41123705 9.73726632,3.1085323 L1.98732065,15.1901048 C1.83229287,15.4317812 1.74988537,15.7128744 1.74988537,16 C1.74988537,16.8284271 2.42145825,17.5 3.24988537,17.5 L18.7497767,17.5 C19.0369023,17.5 19.3179955,17.4175925 19.559672,17.2625647 C20.2569672,16.8152719 20.4596342,15.8874 20.0123415,15.1901048 L12.2623958,3.1085323 Z M13.5249605,2.29863706 L21.2749062,14.3802095 C22.1694918,15.7748 21.7641577,17.6305439 20.3695672,18.5251295 C19.8862143,18.835185 19.3240279,19 18.7497767,19 L3.24988537,19 C1.59303112,19 0.249885374,17.6568542 0.249885374,16 C0.249885374,15.4257488 0.414700364,14.8635624 0.724755916,14.3802095 L8.47470159,2.29863706 C9.36928717,0.904046565 11.225031,0.498712501 12.6196215,1.39329808 C12.9830324,1.62641464 13.2918439,1.93522617 13.5249605,2.29863706 Z" id="icon-warning"></path>
                </g>
            </g>
        </g>
    </g>
</svg>