<?xml version="1.0" encoding="UTF-8"?>
<svg viewBox="0 0 24 24" version="1.1" xmlns="http://www.w3.org/2000/svg" xmlns:xlink="http://www.w3.org/1999/xlink">
    <!-- Generator: sketchtool 61 (101010) - https://sketch.com -->
    <title>FD710063-989D-4849-99DD-BE987B4F6D26</title>
    <desc>Created with sketchtool.</desc>
    <defs>
        <path d="M12.75,15.75 L12.75,15 C12.75,14.5857864 12.4142136,14.25 12,14.25 C11.5857864,14.25 11.25,14.5857864 11.25,15 L11.25,15.75 L12.75,15.75 Z M12,12.75 C13.2426407,12.75 14.25,13.7573593 14.25,15 L14.25,17.25 L9.75,17.25 L9.75,15 C9.75,13.7573593 10.7573593,12.75 12,12.75 Z M15,9 L15,7.5 C15,5.84314575 13.6568542,4.5 12,4.5 C10.3431458,4.5 9,5.84314575 9,7.5 L9,9 L15,9 Z M16.5,9 L17.25,9 C18.4926407,9 19.5,10.0073593 19.5,11.25 L19.5,21 L4.5,21 L4.5,11.25 C4.5,10.0073593 5.50735931,9 6.75,9 L7.5,9 L7.5,7.5 C7.5,5.01471863 9.51471863,3 12,3 C14.4852814,3 16.5,5.01471863 16.5,7.5 L16.5,9 Z M18,19.5 L18,11.25 C18,10.8357864 17.6642136,10.5 17.25,10.5 L6.75,10.5 C6.33578644,10.5 6,10.8357864 6,11.25 L6,19.5 L18,19.5 Z" id="path-1"></path>
    </defs>
    <g id="Asset-Artboard-Page" stroke="none" stroke-width="1" fill="none" fill-rule="evenodd">
        <g id="2.-icons/24px">
            <g id="icon-5.-pieces/platform-agnostic/icons/miscellaneous/icon-lock">
                <mask id="mask-2" fill="white">
                    <use xlink:href="#path-1"></use>
                </mask>
                <use id="3.-platform-agnostic/icons/icon-lock" fill="#666666" fill-rule="nonzero" xlink:href="#path-1"></use>
            </g>
        </g>
    </g>
</svg>