<?xml version="1.0" encoding="UTF-8"?>
<svg width="20px" height="24px" viewBox="0 0 20 24" version="1.1" xmlns="http://www.w3.org/2000/svg" xmlns:xlink="http://www.w3.org/1999/xlink">
    <!-- Generator: sketchtool 63.1 (101010) - https://sketch.com -->
    <title>2A87A2BA-7EEF-4EE6-8263-D0D447D1845C</title>
    <desc>Created with sketchtool.</desc>
    <g id="FINAL" stroke="none" stroke-width="1" fill="none" fill-rule="evenodd">
        <g id="FINAL-WEB" transform="translate(-390.000000, -452.000000)" fill="#666666" fill-rule="nonzero">
            <g id="icon-easy" transform="translate(388.000000, 452.000000)">
                <path d="M18.4002849,2.30498917 C19.0877678,2.99247208 19.1075074,4.26768292 18.5391813,4.9756487 L18.4328002,5.09446039 L16.9015144,6.59560406 C17.014078,6.66768274 17.1206522,6.75292102 17.21905,6.8513189 L17.397241,7.02950984 C17.6986735,7.33094232 17.8766104,7.70910506 17.9310519,8.10112599 C18.3221557,8.15423127 18.6998422,8.3321111 19.0009591,8.63322794 L19.17915,8.81141888 C19.4805825,9.11285136 19.6585195,9.4910141 19.7129609,9.88303503 C20.1040648,9.93614031 20.4817513,10.1140201 20.7828681,10.415137 L20.9610591,10.5933279 C21.6968068,11.3290757 21.6968068,12.5219585 20.9610591,13.2577062 L19.1282384,15.0905269 C18.9385534,15.2802118 18.7184839,15.4209936 18.4836969,15.5128723 C18.456673,15.592605 18.4136761,15.6703533 18.3557176,15.7406936 C16.5640824,17.9150813 15.1274218,18.8870768 13.2968213,19.4655813 L13.0446818,19.5421053 L12.0737741,19.8157826 C11.8102242,19.8956054 11.5920379,19.9753515 11.3981104,20.0667476 L7.95801506,23.5086216 L2.48713013,18.0377367 L5.45939326,15.0646006 L5.4561467,15.0538466 C5.36976067,14.7537163 5.15638788,14.3520271 4.78642609,13.7736108 L4.10082454,12.7326622 L3.90608084,12.4242597 C3.60335993,11.9281832 3.45480678,11.599924 3.45235139,11.250558 C3.44209856,9.79172499 3.17772936,7.84599609 2.84072201,7.30648653 L2.56980435,6.87277888 L2.87457509,6.46215313 C3.39796166,5.75698044 4.51514905,5.45371528 5.48745345,5.90745046 C6.50063826,6.38026287 7.24197299,7.55384086 7.65723711,9.44445479 L7.7200875,9.7489339 C7.83244159,9.79628236 7.94598313,9.84899406 8.05992797,9.90666546 L15.5757741,2.26639843 C16.245313,1.59685961 17.6724442,1.57714847 18.4002849,2.30498917 Z M9.51497741,19.8303389 L6.16541282,16.4807743 L4.60845048,18.0377367 L7.95801506,21.3873012 L9.51497741,19.8303389 Z M17.3396248,3.36564934 C17.2211527,3.24717728 16.8406933,3.23741854 16.6899172,3.29431821 L16.6407945,3.3226623 L9.33024204,10.7542048 C10.2249718,11.5112917 10.9357648,12.513984 10.9875048,13.5177671 C11.0088271,13.9314315 10.690771,14.2840579 10.2771066,14.3053802 C9.8979142,14.3249256 9.57001071,14.0592989 9.5015698,13.6962652 L9.48949345,13.594982 C9.44074383,12.649213 7.87654376,11.3318822 6.84312271,11.0244308 L6.39136152,10.890028 L6.3165083,10.4246795 C6.01298905,8.53775684 5.45850336,7.54923067 4.85313315,7.26672886 C4.70577667,7.19796354 4.55068114,7.18191463 4.41637578,7.19867195 C4.73113217,8.15379745 4.91101588,9.59314737 4.94628755,10.8902564 L4.95231435,11.2400161 L4.9589577,11.2628723 L4.98455309,11.3123489 C5.00988845,11.3572305 5.05372177,11.4289302 5.12777959,11.5455904 L5.91212057,12.7523672 C6.44343765,13.563677 6.74647756,14.1138183 6.89762489,14.6389483 C6.95167565,14.8267364 6.98361499,15.007598 6.98883737,15.1823129 L10.5954993,18.7901275 C10.8430992,18.6613272 11.1074607,18.5534459 11.4072195,18.4536837 L11.6389667,18.3801843 L12.4757075,18.1441058 L12.8497965,18.0337394 C14.2548586,17.5889723 15.361977,16.885096 16.7434484,15.3206 C16.6449793,15.2548366 16.5511989,15.1778656 16.4638601,15.0905269 L16.2856692,14.9123359 C15.9842367,14.6109035 15.8062997,14.2327407 15.7518583,13.8407198 C15.3607544,13.7876145 14.9830679,13.6097347 14.6819511,13.3086178 L14.5037601,13.1304269 C14.2023277,12.8289944 14.0243907,12.4508317 13.9699492,12.0588107 C13.5788454,12.0057055 13.2011589,11.8278256 12.900042,11.5267088 L12.7218511,11.3485178 C11.9861033,10.6127701 11.9861033,9.41988732 12.7218511,8.68413958 L12.9766455,8.42840343 L12.9342032,8.38592345 L17.3773363,4.02865437 C17.4680549,3.93793575 17.4745711,3.50059569 17.3396248,3.36564934 Z M6.2250774,2.24557425 L7.31015108,3.33064793 C7.6030443,3.62354115 7.6030443,4.09841489 7.31015108,4.39130811 C7.04388452,4.65757467 6.62722084,4.68178072 6.33360934,4.46392626 L6.24949091,4.39130811 L5.16441722,3.30623442 C4.871524,3.0133412 4.871524,2.53846747 5.16441722,2.24557425 C5.43068379,1.97930769 5.84734747,1.95510164 6.14095896,2.1729561 L6.2250774,2.24557425 L7.31015108,3.33064793 L6.2250774,2.24557425 Z M16.3365808,8.09017001 L16.1583899,7.91197907 C16.0084286,7.76201776 15.7652932,7.76201776 15.6153319,7.91197907 L13.7825113,9.74479975 C13.63255,9.89476105 13.63255,10.1378964 13.7825113,10.2878577 L13.9607022,10.4660486 C14.1106635,10.6160099 14.3537988,10.6160099 14.5037601,10.4660486 L16.3365808,8.63322794 C16.4865421,8.48326663 16.4865421,8.24013132 16.3365808,8.09017001 Z M18.1184898,9.87207906 L17.9402989,9.69388811 C17.7903376,9.5439268 17.5472023,9.5439268 17.397241,9.69388811 L15.5644203,11.5267088 C15.414459,11.6766701 15.414459,11.9198054 15.5644203,12.0697667 L15.7426112,12.2479577 C15.8925725,12.397919 16.1357079,12.397919 16.2856692,12.2479577 L18.1184898,10.415137 C18.2684512,10.2651757 18.2684512,10.0220404 18.1184898,9.87207906 Z M19.9003989,11.6539881 L19.7222079,11.4757972 C19.5722466,11.3258358 19.3291113,11.3258358 19.17915,11.4757972 L17.3463293,13.3086178 C17.196368,13.4585791 17.196368,13.7017144 17.3463293,13.8516758 L17.5245203,14.0298667 C17.6744816,14.179828 17.9176169,14.179828 18.0675782,14.0298667 L19.9003989,12.197046 C20.0503602,12.0470847 20.0503602,11.8039494 19.9003989,11.6539881 Z M8.73728415,0.491378413 C9.11697992,0.491378413 9.43077511,0.773532295 9.48043754,1.13960786 L9.48728415,1.24137841 L9.48728415,2.77590433 C9.48728415,3.1901179 9.15149771,3.52590433 8.73728415,3.52590433 C8.35758839,3.52590433 8.04379319,3.24375045 7.99413077,2.87767489 L7.98728415,2.77590433 L7.98728415,1.24137841 C7.98728415,0.827164851 8.32307059,0.491378413 8.73728415,0.491378413 Z M12.3101511,2.24557425 C12.5764176,2.51184081 12.6006237,2.92850449 12.3827692,3.22211599 L12.3101511,3.30623442 L11.2250774,4.39130811 C10.9321842,4.68420132 10.4573104,4.68420132 10.1644172,4.39130811 C9.89815066,4.12504154 9.87394461,3.70837786 10.0917991,3.41476637 L10.1644172,3.33064793 L11.2494909,2.24557425 C11.5423841,1.95268103 12.0172579,1.95268103 12.3101511,2.24557425 Z" id="Shape"></path>
            </g>
        </g>
    </g>
</svg>