<?xml version="1.0" encoding="UTF-8"?>
<svg viewBox="0 0 24 24" version="1.1" xmlns="http://www.w3.org/2000/svg" xmlns:xlink="http://www.w3.org/1999/xlink">
    <!-- Generator: sketchtool 61 (101010) - https://sketch.com -->
    <title>88C97809-CA35-4C4C-904C-3579BEFFB307</title>
    <desc>Created with sketchtool.</desc>
    <g id="Asset-Artboard-Page" stroke="none" stroke-width="1" fill="none" fill-rule="evenodd">
        <g id="2.-icons/24px" fill="#666666" fill-rule="nonzero">
            <g id="icon-5.-pieces/platform-agnostic/icons/miscellaneous/icon-time">
                <path d="M16.5,12.75 L11.25,12.75 L11.25,4.5 L12.75,4.5 L12.75,11.25 L16.5,11.25 L16.5,12.75 Z M12,21 C16.9705627,21 21,16.9705627 21,12 C21,7.02943725 16.9705627,3 12,3 C7.02943725,3 3,7.02943725 3,12 C3,16.9705627 7.02943725,21 12,21 Z M12,22.5 C6.20101013,22.5 1.5,17.7989899 1.5,12 C1.5,6.20101013 6.20101013,1.5 12,1.5 C17.7989899,1.5 22.5,6.20101013 22.5,12 C22.5,17.7989899 17.7989899,22.5 12,22.5 Z" id="Oval"></path>
            </g>
        </g>
    </g>
</svg>