<svg viewBox="0 0 91 84" fill="none" xmlns="http://www.w3.org/2000/svg">
<g clip-path="url(#clip0)">
<path d="M58.6456 0.00282524L45.4701 8.73846L32.3629 0L16.7347 10.3997V47.6194L32.3658 57.9908L45.4701 49.2524L58.6456 57.9908L74.2681 47.6194V10.3714L58.6456 0.00282524Z" fill="white"/>
<path d="M58.7426 23.5569V6.07427L68.8696 12.8746V44.2772L21.8139 13.1995L32.5996 6.07427L58.7426 23.5569ZM71.8155 11.5778L58.7426 2.83655L45.6697 11.5778L32.5996 2.83655L19.1959 11.5778V46.2209L32.5996 54.9622L45.6697 46.2209L58.7426 54.9509L71.8155 46.2096V11.5778ZM32.5996 37.4796L43.0574 44.6021L32.5996 51.7245V37.4796Z" fill="#006341"/>
<path d="M1.74249 83.8446H0V75.174H1.74249V83.8446Z" fill="white"/>
<path d="M11.5614 83.8446H9.92448L5.48413 78.0529V83.8446H3.73309V75.174H5.36436L9.81041 80.9657V75.174H11.5614V83.8446Z" fill="white"/>
<path d="M18.1065 83.8446H15.9847L12.6879 75.174H14.5445L17.0541 82.093L19.5723 75.174H21.3861L18.1065 83.8446Z" fill="white"/>
<path d="M29.0547 83.8446H22.5126V75.174H29.0034V76.7589H24.2579V78.6829H28.7838V80.2678H24.2579V82.2625H29.0547V83.8446Z" fill="white"/>
<path d="M36.7662 77.3607C36.024 76.8897 35.1635 76.6342 34.2822 76.6233C33.3012 76.6233 32.6053 77.0075 32.6053 77.663C32.6053 78.3184 33.3639 78.4936 34.4134 78.666L34.9068 78.7479C36.4724 79.0022 37.6959 79.6633 37.6959 81.1748C37.6959 83.0903 35.9848 84 34.114 84C32.7878 84 31.3619 83.6158 30.4236 82.8699L31.3305 81.4771C32.1329 82.0809 33.112 82.4092 34.1197 82.4122C35.0893 82.4122 35.8308 82.0336 35.8308 81.3641C35.8308 80.7623 35.192 80.5391 33.9742 80.347L33.4181 80.2622C31.8724 80.0192 30.7459 79.344 30.7459 77.7788C30.7459 75.9678 32.3743 75.027 34.2366 75.027C35.4182 75.0097 36.5797 75.3304 37.5818 75.9509L36.7662 77.3607Z" fill="white"/>
<path d="M45.6212 76.79H42.9176V83.8531H41.1723V76.79H38.4602V75.174H45.6326L45.6212 76.79Z" fill="white"/>
<path d="M56.4782 83.8446H54.7329V77.2985L52.5683 83.0083H50.7232L48.5615 77.3579V83.8559H46.8161V75.174H49.3828L51.6643 81.0278L53.9458 75.174H56.5125L56.4782 83.8446Z" fill="white"/>
<path d="M65.0081 83.8446H58.466V75.174H64.9568V76.7589H60.2113V78.6829H64.7401V80.2678H60.2113V82.2625H65.0081V83.8446Z" fill="white"/>
<path d="M74.6275 83.8446H72.9877L68.5473 78.0529V83.8446H66.802V75.174H68.4361L72.8821 80.9657V75.174H74.6332L74.6275 83.8446Z" fill="white"/>
<path d="M82.9948 76.79H80.277V83.8531H78.5317V76.79H75.8195V75.174H82.992L82.9948 76.79Z" fill="white"/>
<path d="M90.0675 77.3607C89.3263 76.8898 88.4667 76.6343 87.5863 76.6233C86.6025 76.6233 85.9095 77.0075 85.9095 77.663C85.9095 78.3184 86.6652 78.4936 87.7175 78.6659L88.2109 78.7479C89.7737 79.0021 91 79.6632 91 81.1747C91 83.0903 89.2889 84 87.4152 84C86.092 84 84.666 83.6157 83.7278 82.8699L84.6347 81.477C85.4368 82.0812 86.4161 82.4096 87.4238 82.4122C88.3934 82.4122 89.1349 82.0336 89.1349 81.364C89.1349 80.7622 88.4961 80.5391 87.2755 80.3469L86.7194 80.2622C85.1765 80.0192 84.05 79.344 84.05 77.7788C84.05 75.9678 85.6756 75.027 87.5407 75.027C88.7223 75.01 89.8837 75.3307 90.886 75.9509L90.0675 77.3607Z" fill="white"/>
<path d="M82.9834 71.1508V68.0035H85.1793C87.9114 68.0035 88.9866 66.8028 88.9866 64.5426C88.9866 62.2824 87.9114 61.0365 85.1793 61.0365H80.2969V71.1508H82.9834ZM82.9834 65.7829V63.1667H84.8656C86.0748 63.1667 86.3429 63.6555 86.3429 64.4974C86.3429 65.3393 86.0748 65.7829 84.8656 65.7829H82.9834ZM56.3385 71.1508L53.8745 67.6475C55.2177 67.1135 55.9791 65.9524 55.9791 64.4522C55.9791 62.2344 54.904 61.0365 52.1719 61.0365H47.2467V71.1508H49.9332V68.0035H51.0967L53.2014 71.1508H56.3385ZM49.9332 63.1667H51.8582C53.0674 63.1667 53.3355 63.6555 53.3355 64.407C53.3355 65.2545 53.0674 65.7829 51.8582 65.7829H49.9332V63.1667ZM22.1219 69.0234H16.6577V67.1135H21.2207V64.9861H16.6577V63.1667H22.1219V61.0365H13.9712V71.1508H22.1219V69.0234ZM24.0925 71.1508H29.1089C32.5112 71.1508 34.1681 69.645 34.1681 66.0936C34.1681 62.4576 32.457 61.0365 29.1089 61.0365H24.0953L24.0925 71.1508ZM26.7789 69.0234V63.1667H28.8836C30.1841 63.1667 31.2136 63.7882 31.2136 66.0936C31.2136 68.399 30.1841 69.0234 28.8836 69.0234H26.7789ZM9.31416 61.0365V67.1587L5.23885 61.0365H2.0134V71.1508H4.7027V65.0737L8.77801 71.1508H12.0035V61.0365H9.31416ZM35.5513 66.1388C35.5513 69.1986 36.8945 71.3288 40.5677 71.3288C44.2751 71.3288 45.8066 69.8201 45.8066 66.1388C45.8153 65.8424 45.8 65.5457 45.7609 65.2517H40.619V67.3819H42.9005C42.6781 68.4019 42.2303 68.9782 40.7074 68.9782C39.0961 68.9782 38.5115 67.7351 38.5115 66.153C38.5115 64.3787 39.1389 63.2232 40.619 63.2232C41.5145 63.2232 42.0449 63.3588 42.6324 64.1555L44.8711 62.6045C43.796 61.1918 42.0963 60.8726 40.619 60.8726C36.9116 60.8726 35.557 63.1328 35.557 66.153L35.5513 66.1388ZM62.3844 71.3373C65.9664 71.3373 67.6661 69.6421 67.6661 66.1021C67.6661 62.5621 65.8751 60.8669 62.3844 60.8669C58.8937 60.8669 57.0971 62.5621 57.0971 66.1021C57.0971 69.6421 58.8082 71.3373 62.3844 71.3373ZM62.3844 63.2175C63.7276 63.2175 64.7115 63.7826 64.7115 66.1021C64.7115 68.4979 63.7276 68.9867 62.3844 68.9867C61.0412 68.9867 60.0544 68.4979 60.0544 66.1021C60.0544 63.7967 61.0383 63.2175 62.3844 63.2175ZM69.1005 67.478C69.1005 70.4954 71.0712 71.3373 73.8033 71.3373C76.31 71.3373 78.3263 70.4897 78.3263 67.478V61.0365H75.6399V66.8932C75.6399 68.4019 75.1009 68.9782 73.8033 68.9782C72.3773 68.9782 71.787 68.4132 71.787 66.8932V61.0365H69.1005V67.478Z" fill="white"/>
</g>
<defs>
<clipPath id="clip0">
<rect width="91" height="84" fill="white"/>
</clipPath>
</defs>
</svg>
