<?xml version="1.0" encoding="UTF-8"?>
<svg width="259px" height="228px" viewBox="0 0 259 228" version="1.1" xmlns="http://www.w3.org/2000/svg" xmlns:xlink="http://www.w3.org/1999/xlink">
    <!-- Generator: sketchtool 61.1 (101010) - https://sketch.com -->
    <title>9D249613-F72F-4B1D-861C-DDAFFF38F97D</title>
    <desc>Created with sketchtool.</desc>
    <defs>
        <linearGradient x1="50%" y1="0%" x2="50%" y2="164.001505%" id="linearGradient-1">
            <stop stop-color="#78BE20" stop-opacity="0.953521286" offset="0%"></stop>
            <stop stop-color="#FFFFFF" stop-opacity="0.4" offset="55.2288537%"></stop>
            <stop stop-color="#FFFFFF" stop-opacity="0" offset="100%"></stop>
        </linearGradient>
    </defs>
    <g id="FINAL" stroke="none" stroke-width="1" fill="none" fill-rule="evenodd">
        <g id="FINAL-WEB" transform="translate(-289.000000, -136.000000)">
            <g id="NedID-illustration-2020" transform="translate(289.000000, 136.000000)">
                <g id="loans" transform="translate(196.589262, 121.934084)" fill-rule="nonzero">
                    <path d="M8.63209362,1.06591586 L8.63209362,19.0659159 C6.37731378,19.256863 4.81158275,19.5901963 3.93490052,20.0659159 C3.0582183,20.5416354 2.16680916,21.5416354 1.26067312,23.0659159 L1.08741163,7.06591586 C1.86444491,5.17196383 2.7387854,3.8386305 3.7104331,3.06591586 C4.6820808,2.29320122 6.32263431,1.62653456 8.63209362,1.06591586 Z" id="Path-74" fill="#C9E5A6"></path>
                    <path d="M46.0409,9.06591586 L46.0409,31.8515846 C27.4818938,31.9944721 15.2656294,32.0659159 9.39210679,32.0659159 C0.581822888,32.0659159 0.945461214,26.4255233 1.26067312,23.0659159 C1.47081439,20.8261776 3.92795456,19.2633912 8.63209362,18.3775569 L8.63209362,18.3775569 L8.63209362,9.06591586 L46.0409,9.06591586 Z M18.0175188,14.3009554 C14.8561229,14.3009554 12.2931438,16.8639346 12.2931438,20.0253304 C12.2931438,23.1867263 14.8561229,25.7497054 18.0175188,25.7497054 C21.1789146,25.7497054 23.7418938,23.1867263 23.7418938,20.0253304 C23.7418938,16.8639346 21.1789146,14.3009554 18.0175188,14.3009554 Z" id="Combined-Shape" fill="#E4F2D2"></path>
                    <path d="M18.0175187,13.3009554 C14.3038382,13.3009554 11.2931437,16.3116499 11.2931437,20.0253304 C11.2931437,23.739011 14.3038382,26.7497054 18.0175187,26.7497054 C21.7311993,26.7497054 24.7418937,23.739011 24.7418937,20.0253304 C24.7418937,16.3116499 21.7311993,13.3009554 18.0175187,13.3009554 Z M18.0175187,15.3009554 C20.6266298,15.3009554 22.7418937,17.4162194 22.7418937,20.0253304 C22.7418937,22.6344415 20.6266298,24.7497054 18.0175187,24.7497054 C15.4084077,24.7497054 13.2931437,22.6344415 13.2931437,20.0253304 C13.2931437,17.4162194 15.4084077,15.3009554 18.0175187,15.3009554 Z" id="Stroke-33" fill="#009639" transform="translate(18.017519, 20.025330) scale(-1, 1) translate(-18.017519, -20.025330) "></path>
                    <path d="M41.6502292,12.5648492 C42.2025139,12.5648492 42.6502292,13.0125644 42.6502292,13.5648492 C42.6502292,14.077685 42.264189,14.5003564 41.7668503,14.5581215 L41.6502292,14.5648492 L36.6502292,14.5648492 C36.0979444,14.5648492 35.6502292,14.1171339 35.6502292,13.5648492 C35.6502292,13.0520134 36.0362694,12.629342 36.533608,12.5715769 L36.6502292,12.5648492 L41.6502292,12.5648492 Z" id="Stroke-35" fill="#009639" transform="translate(39.150229, 13.564849) scale(-1, 1) translate(-39.150229, -13.564849) "></path>
                    <path d="M41.6502292,26.0023492 C42.2025139,26.0023492 42.6502292,26.4500644 42.6502292,27.0023492 C42.6502292,27.515185 42.264189,27.9378564 41.7668503,27.9956215 L41.6502292,28.0023492 L36.6502292,28.0023492 C36.0979444,28.0023492 35.6502292,27.5546339 35.6502292,27.0023492 C35.6502292,26.4895134 36.0362694,26.066842 36.533608,26.0090769 L36.6502292,26.0023492 L41.6502292,26.0023492 Z" id="Stroke-37" fill="#009639" transform="translate(39.150229, 27.002349) scale(-1, 1) translate(-39.150229, -27.002349) "></path>
                    <path d="M37.6249,8.08491586 L37.625,-7.10542736e-15 L38.6479139,0.0234450836 C38.9329644,0.0299784134 39.3958483,0.0728929991 39.9802037,0.181446707 C40.9485242,0.361328289 41.9183089,0.667822872 42.8325552,1.13542322 C45.4984627,2.49892812 47.1293958,4.92663743 47.1293958,8.52757836 L47.122053,11.2886226 L47.1130677,12.7784694 C47.1027938,14.2430802 47.088092,15.7715122 47.069784,17.3370568 L46.999045,22.4878699 L46.9458022,25.6944953 C46.8515345,29.1641006 45.2573363,31.4203346 42.6977798,32.571462 C41.8729907,32.9424002 41.0006813,33.172414 40.1209552,33.2914205 C39.6227812,33.3588118 39.1817583,33.383721 38.8225983,33.3823334 L38.6158657,33.3778547 L1.17239551e-13,33.3773492 L1.17239551e-13,8.08568253 L37.6249,8.08491586 Z M37.6249,10.0849159 L1.9999,10.0849159 L1.9999,31.3769159 L38.7107557,31.3800166 C38.9933224,31.3886108 39.388554,31.3722805 39.8528439,31.3094729 C40.5533913,31.2147051 41.2425077,31.0329963 41.8774493,30.7474395 C43.816175,29.8755228 44.9502292,28.2145224 44.9502292,25.3656617 C44.9502292,22.5411841 43.8464551,21.0213857 41.9471367,20.3336173 C40.9563556,19.9748424 39.8828704,19.891037 38.9584907,19.9665961 L38.7687761,19.9858969 L37.625,20.1520711 L37.6249,10.0849159 Z M39.6249,2.14891586 L39.6249,17.9409159 L39.7113597,17.9409747 C40.5462177,17.9505152 41.429216,18.068106 42.3015724,18.342689 L42.6280925,18.4531123 C43.5210757,18.7764734 44.2989742,19.2434387 44.9392908,19.8586374 L45.0359,19.9559159 L45.0829348,16.1493995 L45.1131169,12.7644401 C45.123778,11.2446482 45.1293958,9.82604999 45.1293958,8.52757836 C45.1293958,5.71267293 43.9461805,3.95140959 41.9218406,2.91604079 C41.2984061,2.59717898 40.6296279,2.36841154 39.9534499,2.21707817 L39.6249,2.14891586 Z" id="Stroke-39" fill="#009639" transform="translate(23.564698, 16.691194) scale(-1, 1) translate(-23.564698, -16.691194) "></path>
                    <path d="M56.7127292,13.0856825 C57.2650139,13.0856825 57.7127292,13.5333978 57.7127292,14.0856825 C57.7127292,14.5985184 57.326689,15.0211897 56.8293503,15.0789548 L56.7127292,15.0856825 L46.7127292,15.0856825 C46.1604444,15.0856825 45.7127292,14.6379673 45.7127292,14.0856825 C45.7127292,13.5728467 46.0987694,13.1501754 46.596108,13.0924103 L46.7127292,13.0856825 L56.7127292,13.0856825 Z" id="Stroke-41" fill="#009639" transform="translate(51.712729, 14.085683) scale(-1, 1) translate(-51.712729, -14.085683) "></path>
                    <path d="M61.4107375,20.6690159 C61.9630222,20.6690159 62.4107375,21.1167311 62.4107375,21.6690159 C62.4107375,22.1818517 62.0246973,22.604523 61.5273586,22.6622881 L61.4107375,22.6690159 L56.4107375,22.6690159 C55.8584528,22.6690159 55.4107375,22.2213006 55.4107375,21.6690159 C55.4107375,21.15618 55.7967777,20.7335087 56.2941164,20.6757436 L56.4107375,20.6690159 L61.4107375,20.6690159 Z" id="Stroke-47" fill="#009639" transform="translate(58.910738, 21.669016) scale(-1, 1) translate(-58.910738, -21.669016) "></path>
                    <path d="M52.9835625,20.6690159 C53.5358472,20.6690159 53.9835625,21.1167311 53.9835625,21.6690159 C53.9835625,22.1818517 53.5975223,22.604523 53.1001836,22.6622881 L52.9835625,22.6690159 L46.7127292,22.6690159 C46.1604444,22.6690159 45.7127292,22.2213006 45.7127292,21.6690159 C45.7127292,21.15618 46.0987694,20.7335087 46.596108,20.6757436 L46.7127292,20.6690159 L52.9835625,20.6690159 Z" id="Stroke-49" fill="#009639" transform="translate(49.848146, 21.669016) scale(-1, 1) translate(-49.848146, -21.669016) "></path>
                </g>
                <g id="homeloans" transform="translate(175.809079, 156.000000)" fill-rule="nonzero">
                    <path d="M25.5512606,8.06976744 L42.4134367,21.321874 L42.4134367,44 L24.6105116,43.9997674 L24.6113391,24 L13.2387901,24 L13.2385116,43.9997674 L8.04651163,44 L8.04651163,21.321874 L25.5512606,8.06976744 Z M39.121143,22.8865481 L28.5329077,22.8865481 L28.5329077,33.9339535 L39.121143,33.9339535 L39.121143,22.8865481 Z" id="Combined-Shape" fill="#E4F2D2"></path>
                    <polygon id="Rectangle-Copy-9" fill="#E4F2D2" points="11.2780058 14.2254656 11.2780058 5.38850889 16.376045 5.38850889 16.376045 10.1563716"></polygon>
                    <polygon id="Path-5-Copy-2" fill="#009639" points="9.14075087 21.0747834 9.14075087 44 7.14075087 44 7.14075087 21.0747834"></polygon>
                    <polygon id="Path-5-Copy-3" fill="#009639" points="43.6505548 21.0747834 43.6505548 44 41.6505548 44 41.6505548 21.0747834"></polygon>
                    <path d="M47.3023967,44 C47.8546815,44 48.3023967,44.4477153 48.3023967,45 C48.3023967,45.5128358 47.9163565,45.9355072 47.4190178,45.9932723 L47.3023967,46 L4.32108332,46 C3.76879857,46 3.32108332,45.5522847 3.32108332,45 C3.32108332,44.4871642 3.70712351,44.0644928 4.20446219,44.0067277 L4.32108332,44 L47.3023967,44 Z" id="Line-71" fill="#009639"></path>
                    <path d="M58.3210833,44 C58.8733681,44 59.3210833,44.4477153 59.3210833,45 C59.3210833,45.5128358 58.9350431,45.9355072 58.4377044,45.9932723 L58.3210833,46 L52.3210833,46 C51.7687986,46 51.3210833,45.5522847 51.3210833,45 C51.3210833,44.4871642 51.7071235,44.0644928 52.2044622,44.0067277 L52.3210833,44 L58.3210833,44 Z" id="Line-71" fill="#009639"></path>
                    <path d="M39.121143,22.8865481 L39.121143,33.9339535 L28.5329077,33.9339535 L28.5329077,22.8865481 L39.121143,22.8865481 Z M37.121,24.886 L30.532,24.886 L30.532,31.933 L37.121,31.933 L37.121,24.886 Z" id="Rectangle-Copy-6" fill="#009639"></path>
                    <path d="M50.3449999,21.2142451 L25.3410763,1.76359755 L0.791627802,21.2646434 L4.43177138,25.1946345 L25.347,8.846 L46.7803944,25.6045696 L50.3449999,21.2142451 Z M25.354,4.307 L47.505,21.538 L46.465,22.819 L25.3476469,6.3074446 L4.649,22.485 L3.725,21.488 L25.354,4.307 Z" id="Path-6-Copy" fill="#009639"></path>
                    <path d="M19.4858489,-4.54747351e-13 L19.4858489,6.00392157 L8.16820185,6.00392157 L8.16820185,-4.54747351e-13 L19.4858489,-4.54747351e-13 Z M17.485,1.999 L10.168,1.999 L10.168,4.003 L17.485,4.003 L17.485,1.999 Z" id="Rectangle-Copy-10" fill="#009639"></path>
                    <path d="M25.6113391,23 L12.2387901,23 L12.2387901,46 L25.6113391,46 L25.6113391,23 Z M23.611,25 L23.611,44 L14.238,44 L14.238,25 L23.611,25 Z" id="Rectangle-Copy-11" fill="#009639"></path>
                    <polygon id="Line-2" fill="#009639" points="34.85 23.1631064 34.85 33.5373917 32.85 33.5373917 32.85 23.1631064"></polygon>
                    <path d="M17.376045,4.38850889 L10.2780058,4.38850889 L10.2780058,16.3031155 L17.376045,10.6376847 L17.376045,4.38850889 Z M15.376,6.388 L15.376,9.674 L12.278,12.147 L12.278,6.388 L15.376,6.388 Z" id="Rectangle-Copy-9" fill="#009639"></path>
                </g>
                <g id="relationship" transform="translate(95.834371, 165.401484)" fill-rule="nonzero">
                    <path d="M21.2523509,40.3379496 L23.2440423,40.5200634 L21.4864476,59.6964144 C21.4864476,60.9306246 22.2561463,62.019907 23.3932673,62.4442569 C23.6527743,62.5410995 23.9255793,62.6006456 24.1910208,62.6208166 L24.3883984,62.6285295 L27.473167,62.5368019 L27.532612,64.5359183 L24.4181209,64.6280876 C23.8231582,64.6280876 23.2412441,64.52225 22.6940125,64.3180345 C20.8491987,63.6295884 19.5796957,61.901635 19.4950949,59.8362031 L19.490602,59.6053575 L21.2523509,40.3379496 Z" id="Rectangle-7" fill="#009639" transform="translate(23.511607, 52.483019) rotate(-46.000000) translate(-23.511607, -52.483019) "></path>
                    <path d="M32.9171649,46.6398155 C33.4299765,46.6348793 33.85638,47.0167931 33.9189762,47.5135468 L33.9268371,47.6300971 L34.0045154,55.6266512 C34.0045154,56.8608614 34.7742141,57.9501438 35.911335,58.3744937 C36.170842,58.4713363 36.443647,58.5308824 36.7090885,58.5510534 L36.9064661,58.5587663 L39.9912348,58.4670387 C40.5432755,58.4506235 41.0041002,58.8848337 41.0205155,59.4368744 C41.0357582,59.9494837 40.6624514,60.3834424 40.1670494,60.4559641 L40.0506798,60.4661551 L36.9361886,60.5583245 C36.341226,60.5583245 35.7593118,60.4524868 35.2120802,60.2482713 C33.3672664,59.5598252 32.0977635,57.8318718 32.0094801,55.8567998 L32.0045626,55.6363706 L31.9268833,47.6495359 C31.9215637,47.0972772 32.3649063,46.6452316 32.9171649,46.6398155 Z" id="Rectangle-7-Copy" fill="#009639" transform="translate(36.473925, 53.599070) rotate(-46.000000) translate(-36.473925, -53.599070) "></path>
                    <path d="M39.2451636,41.3837275 C39.7579073,41.3934521 40.1731823,41.7874378 40.2215063,42.2857824 L40.2260214,42.4025101 L40.0282117,52.8228137 C40.0282117,54.0570238 40.7979104,55.1463062 41.9350314,55.5706561 C42.1945384,55.6674988 42.4673433,55.7270449 42.7327848,55.7472158 L42.9301625,55.7549287 L46.0149311,55.6632012 C46.5669718,55.6467859 47.0277965,56.0809961 47.0442118,56.6330369 C47.0594545,57.1456462 46.6861478,57.5796048 46.1907457,57.6521265 L46.0743761,57.6623176 L42.9598849,57.7544869 C42.3649223,57.7544869 41.7830082,57.6486493 41.2357765,57.4444338 C39.3909628,56.7559877 38.1214598,55.0280343 38.0332953,53.027245 L38.0283915,52.8038512 L38.226381,42.3645852 C38.2368537,41.8123998 38.6929782,41.3732548 39.2451636,41.3837275 Z" id="Rectangle-7-Copy-2" fill="#009639" transform="translate(42.536527, 49.569015) rotate(-46.000000) translate(-42.536527, -49.569015) "></path>
                    <path d="M44.940383,35.648767 C45.4532189,35.648767 45.8758902,36.0348071 45.9336553,36.5321458 L45.940383,36.648767 L45.940383,49.0831043 C45.940383,50.3173145 46.7100817,51.4065969 47.8472027,51.8309468 C48.1067097,51.9277894 48.3795147,51.9873355 48.6252449,52.0084731 L48.8038353,52.0171073 L53.6313728,51.6869988 C54.1823708,51.6493214 54.6595866,52.06545 54.697264,52.6164481 C54.7322502,53.1280891 54.3759444,53.5761118 53.8837052,53.6676712 L53.7678148,53.6823393 L48.8720563,54.0147776 C48.2770936,54.0147776 47.6951795,53.9089399 47.1479478,53.7047244 C45.3031341,53.0162783 44.0336311,51.2883249 43.9453054,49.3045381 L43.940383,49.0831043 L43.940383,36.648767 C43.940383,36.0964822 44.3880983,35.648767 44.940383,35.648767 Z" id="Rectangle-7-Copy-3" fill="#009639" transform="translate(49.320008, 44.831772) rotate(-46.000000) translate(-49.320008, -44.831772) "></path>
                    <polygon id="Path-5" fill="#009639" points="33.4491171 23.510117 33.4491171 25.510117 20.0814281 25.510117 20.0814281 23.510117"></polygon>
                    <polygon id="Rectangle-8-Copy" fill="#E4F2D2" transform="translate(67.569362, 33.518076) scale(-1, 1) rotate(-345.000000) translate(-67.569362, -33.518076) " points="60.5927725 17.8423589 74.5459522 17.8423589 74.5459522 49.1937931 60.5927725 49.1937931"></polygon>
                    <path d="M62.5781029,47.3725228 L64.0212105,46.9656356 C64.0523623,46.960796 64.2666157,46.9111478 64.2366944,46.956532 L64.2170909,46.9753716 L65.4299741,48.5656277 L65.0902177,48.7401441 L63.1241813,49.2965286 C61.2167043,49.8379157 58.9706815,48.9439458 56.3514495,46.7730111 L56.0693878,46.5355318 L40.4447919,33.8178217 L29.3464501,41.1413485 L28.9929628,41.1060828 C27.0985462,40.917086 25.5875219,40.5344349 24.4518971,39.939174 C23.3807983,39.3777357 22.4226739,38.5121891 21.5747989,37.3547188 L21.3651254,37.0592766 L20.9170093,36.4077596 L22.5945747,34.5567887 C28.583641,27.9655601 32.5282817,23.8365103 34.4626284,22.1382888 C36.625399,20.2395271 39.1149901,19.498466 41.8513324,19.943411 L42.1681547,20.0000157 L42.2803069,20.028668 L55.6797919,24.2908217 L58.3315004,24.2778065 L58.3421168,26.2777783 L55.3744335,26.2935317 L41.7387919,21.9548217 L41.4944387,21.9117142 C39.463799,21.5906295 37.6603944,22.0929045 36.0159733,23.4426666 L35.7821302,23.6412576 L35.4094449,23.9762038 C33.4255719,25.7954499 29.6356226,29.7818471 24.0677204,35.9095632 L23.4837919,36.5528217 L23.6200287,36.7180988 C24.1035889,37.2808867 24.6136387,37.7196834 25.1492853,38.0384813 L25.3804127,38.1677737 C26.1232735,38.5571594 27.1490186,38.8478823 28.4528057,39.0284587 L28.8407919,39.0778217 L40.5693067,31.3403186 L57.3503982,44.9998123 C59.6507646,46.9660202 61.4123242,47.7033984 62.5781029,47.3725228 Z" id="Path-4" fill="#009639"></path>
                    <polygon id="Rectangle-8-Copy" fill="#E4F2D2" transform="translate(10.976590, 33.518076) rotate(-345.000000) translate(-10.976590, -33.518076) " points="4 17.8423589 17.9531796 17.8423589 17.9531796 49.1937931 4 49.1937931"></polygon>
                    <path d="M74.5459522,17.8423589 L74.5459522,49.1937931 L60.5927725,49.1937931 L60.5927725,17.8423589 L74.5459522,17.8423589 Z M72.5457919,19.8418217 L62.5917919,19.8418217 L62.5917919,47.1928217 L72.5457919,47.1928217 L72.5457919,19.8418217 Z" id="Rectangle-8-Copy" fill="#009639" transform="translate(67.569362, 33.518076) scale(-1, 1) rotate(-345.000000) translate(-67.569362, -33.518076) "></path>
                    <path d="M17.9531796,17.8423589 L17.9531796,49.1937931 L4,49.1937931 L4,17.8423589 L17.9531796,17.8423589 Z M15.9527919,19.8418217 L5.99979186,19.8418217 L5.99979186,47.1928217 L15.9527919,47.1928217 L15.9527919,19.8418217 Z" id="Rectangle-8-Copy" fill="#009639" transform="translate(10.976590, 33.518076) rotate(-345.000000) translate(-10.976590, -33.518076) "></path>
                    <path d="M34.9306233,2.84217094e-14 C35.4434592,2.84217094e-14 35.8661305,0.38604019 35.9238956,0.883378875 L35.9306233,1 L35.9306233,6 C35.9306233,6.55228475 35.4829081,7 34.9306233,7 C34.4177875,7 33.9951162,6.61395981 33.9373511,6.11662113 L33.9306233,6 L33.9306233,1 C33.9306233,0.44771525 34.3783386,2.84217094e-14 34.9306233,2.84217094e-14 Z" id="Line-70" fill="#009639"></path>
                    <path d="M21.9306233,5 C22.4434592,5 22.8661305,5.38604019 22.9238956,5.88337887 L22.9306233,6 L22.9306233,11 C22.9306233,11.5522847 22.4829081,12 21.9306233,12 C21.4177875,12 20.9951162,11.6139598 20.9373511,11.1166211 L20.9306233,11 L20.9306233,6 C20.9306233,5.44771525 21.3783386,5 21.9306233,5 Z" id="Line-70" fill="#009639" transform="translate(21.930623, 8.500000) rotate(-50.000000) translate(-21.930623, -8.500000) "></path>
                    <path d="M48.9306233,5 C49.4434592,5 49.8661305,5.38604019 49.9238956,5.88337887 L49.9306233,6 L49.9306233,11 C49.9306233,11.5522847 49.4829081,12 48.9306233,12 C48.4177875,12 47.9951162,11.6139598 47.9373511,11.1166211 L47.9306233,11 L47.9306233,6 C47.9306233,5.44771525 48.3783386,5 48.9306233,5 Z" id="Line-70" fill="#009639" transform="translate(48.930623, 8.500000) scale(-1, 1) rotate(-50.000000) translate(-48.930623, -8.500000) "></path>
                </g>
                <g id="rewards" transform="translate(27.630162, 160.000000)">
                    <polygon id="Rectangle-path" fill="#E4F2D2" points="40.9274 10.059 47.198 10.059 47.198 41.919 40.9274 41.919"></polygon>
                    <path d="M31.4813134,41 C32.0335981,41 32.4813134,41.4477153 32.4813134,42 C32.4813134,42.5128358 32.0952732,42.9355072 31.5979345,42.9932723 L31.4813134,43 L16.6894645,43 C16.1371797,43 15.6894645,42.5522847 15.6894645,42 C15.6894645,41.4871642 16.0755047,41.0644928 16.5728433,41.0067277 L16.6894645,41 L31.4813134,41 Z" id="Line-71-Copy" fill="#009639" fill-rule="nonzero"></path>
                    <path d="M12.4813134,41 C13.0335981,41 13.4813134,41.4477153 13.4813134,42 C13.4813134,42.5128358 13.0952732,42.9355072 12.5979345,42.9932723 L12.4813134,43 L7.12941956,43 C6.57713481,43 6.12941956,42.5522847 6.12941956,42 C6.12941956,41.4871642 6.51545975,41.0644928 7.01279844,41.0067277 L7.12941956,41 L12.4813134,41 Z" id="Line-71-Copy-2" fill="#009639" fill-rule="nonzero"></path>
                    <path d="M2.40258189,41 C2.95486664,41 3.40258189,41.4477153 3.40258189,42 C3.40258189,42.5128358 3.0165417,42.9355072 2.51920301,42.9932723 L2.40258189,43 L1,43 C0.44771525,43 0,42.5522847 0,42 C0,41.4871642 0.38604019,41.0644928 0.883378875,41.0067277 L1,41 L2.40258189,41 Z" id="Line-71-Copy-3" fill="#009639" fill-rule="nonzero"></path>
                    <polygon id="Shape" fill="#009639" fill-rule="nonzero" points="61.8974 20.6648269 61.8974 42.9192 26.0422 42.9192 26.0422 20.8432447 28.0422 20.8432447 28.042 40.919 59.897 40.919 59.8974 20.6648269"></polygon>
                    <polygon id="Shape" fill="#009639" fill-rule="nonzero" points="64.0292 9.059 64.0292 21.0062 47.198 21.0062 47.198 19.0062 62.029 19.006 62.029 11.058 25.911 11.058 25.911 19.006 40.9274 19.0062 40.9274 21.0062 23.9116 21.0062 23.9116 9.059"></polygon>
                    <path d="M48.198,9.059 L39.9274,9.059 L39.9274,42.919 L48.198,42.919 L48.198,9.059 Z M46.198,11.058 L46.198,40.918 L41.927,40.918 L41.927,11.058 L46.198,11.058 Z" id="Rectangle-path" fill="#009639" fill-rule="nonzero"></path>
                    <path d="M44.0607747,1.63481741 L36.0953905,1.63481741 C32.9105485,1.63481741 30.3287239,4.21664202 30.3287239,7.40148408 C30.3287239,10.5863261 32.9105485,13.1681507 36.0953905,13.1681507 C37.1782776,13.1681507 37.5685522,12.8346867 38.5894514,11.1068883 L44.0607747,1.63481741 Z M36.0953905,3.63481741 L40.597,3.634 L36.6821933,10.4106453 C36.2480082,11.1495195 36.207358,11.1681507 36.0953905,11.1681507 C34.015118,11.1681507 32.3287239,9.48175664 32.3287239,7.40148408 C32.3287239,5.32121152 34.015118,3.63481741 36.0953905,3.63481741 Z" id="Oval" fill="#009639" fill-rule="nonzero" transform="translate(37.194749, 7.401484) rotate(-300.000000) translate(-37.194749, -7.401484) "></path>
                    <path d="M58.0607747,1.63481741 L50.0953905,1.63481741 C46.9105485,1.63481741 44.3287239,4.21664202 44.3287239,7.40148408 C44.3287239,10.5863261 46.9105485,13.1681507 50.0953905,13.1681507 C51.1782776,13.1681507 51.5685522,12.8346867 52.5894514,11.1068883 L58.0607747,1.63481741 Z M50.0953905,3.63481741 L54.597,3.634 L50.6821933,10.4106453 C50.2480082,11.1495195 50.207358,11.1681507 50.0953905,11.1681507 C48.015118,11.1681507 46.3287239,9.48175664 46.3287239,7.40148408 C46.3287239,5.32121152 48.015118,3.63481741 50.0953905,3.63481741 Z" id="Oval" fill="#009639" fill-rule="nonzero" transform="translate(51.194749, 7.401484) scale(-1, 1) rotate(-300.000000) translate(-51.194749, -7.401484) "></path>
                </g>
                <g id="accounts" transform="translate(0.000000, 124.003164)">
                    <polygon id="Rectangle-path" fill="#E4F2D2" points="21.7613453 7.37010156 71.4353238 7.37010156 71.4353238 15.7289219 21.7613453 15.7289219"></polygon>
                    <path d="M20.9583333,12.0166026 C21.5106181,12.0166026 21.9583333,12.4643179 21.9583333,13.0166026 C21.9583333,13.5294384 21.5722931,13.9521098 21.0749545,14.0098749 L20.9583333,14.0166026 L10.9583333,14.0166026 C10.4060486,14.0166026 9.95833333,13.5688874 9.95833333,13.0166026 C9.95833333,12.5037668 10.3443735,12.0810954 10.8417122,12.0233303 L10.9583333,12.0166026 L20.9583333,12.0166026 Z" id="Stroke-41" fill="#009639" fill-rule="nonzero"></path>
                    <path d="M11,19.5999359 C11.5522847,19.5999359 12,20.0476512 12,20.5999359 C12,21.1127718 11.6139598,21.5354431 11.1166211,21.5932082 L11,21.5999359 L6,21.5999359 C5.44771525,21.5999359 5,21.1522207 5,20.5999359 C5,20.0871001 5.38604019,19.6644288 5.88337887,19.6066637 L6,19.5999359 L11,19.5999359 Z" id="Stroke-47" fill="#009639" fill-rule="nonzero"></path>
                    <path d="M2,19.5999359 C2.55228475,19.5999359 3,20.0476512 3,20.5999359 C3,21.1127718 2.61395981,21.5354431 2.11662113,21.5932082 L2,21.5999359 L1,21.5999359 C0.44771525,21.5999359 0,21.1522207 0,20.5999359 C0,20.0871001 0.38604019,19.6644288 0.883378875,19.6066637 L1,19.5999359 L2,19.5999359 Z" id="Stroke-47" fill="#009639" fill-rule="nonzero"></path>
                    <path d="M20.9583333,19.5999359 C21.5106181,19.5999359 21.9583333,20.0476512 21.9583333,20.5999359 C21.9583333,21.1127718 21.5722931,21.5354431 21.0749545,21.5932082 L20.9583333,21.5999359 L14.6875,21.5999359 C14.1352153,21.5999359 13.6875,21.1522207 13.6875,20.5999359 C13.6875,20.0871001 14.0735402,19.6644288 14.5708789,19.6066637 L14.6875,19.5999359 L20.9583333,19.5999359 Z" id="Stroke-49" fill="#009639" fill-rule="nonzero"></path>
                    <polygon id="Shape" fill="#009639" fill-rule="nonzero" points="62.78027 25.3133437 62.78027 27.3133437 49.7622055 27.3133437 49.7622055 25.3133437"></polygon>
                    <path d="M68.5968292,1.42108547e-14 L24.600055,1.42108547e-14 C22.4841917,1.42108547e-14 20.7615603,1.6901013 20.7615603,3.78458594 L20.7615603,31.9040312 C20.7615603,33.998966 22.4840033,35.6886172 24.600055,35.6886172 L68.5966141,35.6886172 C70.7127677,35.6886172 72.4355388,33.9991082 72.4355388,31.904171 L72.4355388,3.78458594 C72.4355388,1.69026767 70.7126477,1.42108547e-14 68.5968292,1.42108547e-14 Z M24.600055,2 L68.5968292,2 C69.6165455,2 70.4355388,2.80348543 70.4355388,3.78458594 L70.4355388,31.9040312 C70.4355388,32.8856887 69.6168047,33.6886172 68.5966141,33.6886172 L24.600055,33.6886172 C23.5800597,33.6886172 22.7615603,32.8857004 22.7615603,31.9040312 L22.7615603,3.78458594 C22.7615603,2.80329513 23.5803168,2 24.600055,2 Z" id="Shape" fill="#009639" fill-rule="nonzero"></path>
                    <path d="M72.4353238,6.37010156 L20.7613453,6.37010156 L20.7613453,16.7289219 L72.4353238,16.7289219 L72.4353238,6.37010156 Z M70.4351625,8.36983594 L70.4351625,14.7288359 L22.7611625,14.7288359 L22.7611625,8.36983594 L70.4351625,8.36983594 Z" id="Rectangle-path" fill="#009639" fill-rule="nonzero"></path>
                </g>
                <g id="ID" transform="translate(57.630162, 24.000013)" fill-rule="nonzero">
                    <path d="M123,125.648338 L123,120.473353 C123,119.022279 122.137445,117.720122 120.834074,117.205592 C105.540047,111.153927 88.5620795,103.639314 87.1351993,98.9570899 L87.1351993,94.0448117 C90.3077736,90.72164 92.8100858,86.0869112 94.2911895,80.6605977 C97.8493529,78.1022948 98.7339985,72.8288561 95.7888615,69.119292 L95.7888615,58.1226955 C95.7888615,46.7708754 89.6154204,38.9999868 75.5017572,38.9999868 C61.7520942,38.9999868 55.207122,46.7708754 55.207122,58.1226955 L55.207122,69.1227552 C52.2685118,72.8268771 53.1511492,78.0968526 56.704794,80.658124 C58.1853956,86.0864165 60.689716,90.7211453 63.8642987,94.044317 L63.8642987,98.9565952 C62.441435,103.633377 45.4594513,111.149969 30.1659259,117.205097 C28.8625546,117.723091 28,119.02129 28,120.472858 L28,125.647844" id="Path" fill-opacity="0.3" fill="url(#linearGradient-1)"></path>
                    <path d="M123,125.648338 L123,120.473353 C123,119.022279 122.137445,117.720122 120.834074,117.205592 C105.540047,111.153927 88.5620795,103.639314 87.1351993,98.9570899 L87.1351993,94.0448117 C90.3077736,90.72164 92.8100858,86.0869112 94.2911895,80.6605977 C97.8493529,78.1022948 98.7339985,72.8288561 95.7888615,69.119292 L95.7888615,58.1226955 C95.7888615,46.7708754 89.6154204,38.9999868 75.5017572,38.9999868 C61.7520942,38.9999868 55.207122,46.7708754 55.207122,58.1226955 L55.207122,69.1227552 C52.2685118,72.8268771 53.1511492,78.0968526 56.704794,80.658124 C58.1853956,86.0864165 60.689716,90.7211453 63.8642987,94.044317 L63.8642987,98.9565952 C62.441435,103.633377 45.4594513,111.149969 30.1659259,117.205097 C28.8625546,117.723091 28,119.02129 28,120.472858 L28,125.647844" id="Path" stroke="#009639" stroke-width="2"></path>
                    <path d="M15.4512196,136.805336 L15.5552109,136.970096 L15.5552109,136.970096 L15.6615886,137.133634 C15.9612824,137.594361 15.8329765,138.210598 15.3743036,138.513426 L15.368632,138.517171 C14.9139935,138.817336 14.3021044,138.692111 14.0019393,138.237472 C13.9994638,138.233723 13.9970138,138.229956 13.9945898,138.226173 L13.7620641,137.863295 C13.4681544,137.404621 13.6017222,136.794532 14.0603961,136.500622 C14.0641931,136.498189 14.0680069,136.495782 14.071837,136.493401 L14.0776519,136.489786 C14.5444266,136.199639 15.157872,136.340566 15.4512196,136.805336 Z" id="Path" fill="#009639"></path>
                    <path d="M33.1160897,158.484087 C33.4723296,158.062054 34.1032442,158.008718 34.5252769,158.364958 C37.0321365,160.48101 39.6402258,162.487417 42.3364504,164.38675 C42.7879555,164.704809 42.8961349,165.328664 42.5780758,165.780169 C42.2600168,166.231674 41.6361618,166.339853 41.1846566,166.021794 C38.441672,164.089522 35.7874571,162.047631 33.2352183,159.893274 C32.8131856,159.537034 32.7598499,158.906119 33.1160897,158.484087 Z" id="Path" fill="#009639"></path>
                    <path d="M116.607991,160.533015 C117.040935,160.190118 117.669878,160.263116 118.012774,160.69606 C118.35567,161.129004 118.282672,161.757947 117.849728,162.100844 C116.304159,163.324951 114.725378,164.509867 113.116164,165.65619 C112.66634,165.976622 112.041924,165.871729 111.721492,165.421905 C111.40106,164.972081 111.505952,164.347665 111.955777,164.027233 C113.537663,162.900376 115.089321,161.735817 116.607991,160.533015 Z" id="Path" fill="#009639"></path>
                    <path d="M71.5693225,2.63084508 C74.0167545,-0.876940878 79.7672827,-0.876940878 82.2156428,2.63080019 C97.1023264,23.9646759 115.284557,32.7875307 134.42326,32.7875307 C137.36138,32.7875307 140.068799,32.5569384 142.481324,32.1726219 C143.184963,32.0605318 143.820981,31.9417922 144.384547,31.8220315 L145.100168,31.6603376 L145.492443,31.5598353 C149.589223,30.3998616 153.638567,33.3926001 153.78188,37.5353887 L153.7858,37.7624814 L153.7858,89.1696578 C153.7858,93.3748197 153.535087,97.4669724 153.041098,101.447432 C152.973079,101.995512 152.473632,102.384679 151.925552,102.31666 C151.377472,102.248642 150.988305,101.749195 151.056324,101.201115 C151.491746,97.6925721 151.734284,94.0937037 151.778437,90.4032156 L151.7858,89.1696578 L151.7858,37.7624814 C151.7858,34.8284988 148.930942,32.6648735 146.042581,33.4826765 L145.788545,33.5519904 C145.170445,33.7125603 144.12045,33.9367259 142.795958,34.1477182 C140.283,34.5480336 137.47103,34.7875307 134.42326,34.7875307 C114.651253,34.7875307 95.8492884,25.6639522 80.5755561,3.77540297 C78.9232821,1.40820649 74.8610671,1.40820649 73.2095168,3.77529367 C63.3366778,17.9240295 50.9347375,27.253791 37.4413918,31.9051146 C26.4703143,35.686981 15.3247106,36.0426744 7.75802201,33.488096 C4.95829968,32.6594955 2.12863652,34.6859194 2.00425629,37.5656382 L2,37.7632814 L2,89.1696578 C2,92.0759787 2.12207656,94.9262759 2.3636185,97.7211605 C2.41117127,98.2713942 2.00366783,98.7559959 1.45343408,98.8035487 C0.903200335,98.8511015 0.418598606,98.4435981 0.371045828,97.8933643 C0.159752731,95.4484894 0.0380712737,92.9629156 0.00761724694,90.436355 L5.68434189e-14,89.1696578 L5.68434189e-14,37.7632814 C5.68434189e-14,33.4376707 4.18552214,30.345033 8.36159856,31.5817199 C15.5246092,33.999301 26.2193604,33.6579959 36.7896051,30.0143015 C49.8840052,25.5004994 61.9394293,16.4314159 71.5693225,2.63084508 Z" id="Path" fill="#009639"></path>
                </g>
                <g id="cloud-2" transform="translate(209.630162, 37.500000) scale(-1, 1) translate(-209.630162, -37.500000) translate(187.630162, 31.000000)" fill="#E5F5EB" fill-rule="nonzero">
                    <path d="M19.0458816,0.29412297 C22.1307821,0.29412297 24.8512881,2.20320656 25.9384291,5.01699776 L26.012,5.219 L26.085138,5.22081179 C28.8848423,5.32399849 31.1881621,7.37050712 31.6859636,10.0512038 L31.7,10.139 L36.5995819,10.1393304 C37.1124178,10.1393304 37.5350891,10.5253706 37.5928542,11.0227093 L37.5995819,11.1393304 C37.5995819,11.6521663 37.2135417,12.0748376 36.716203,12.1326027 L36.5995819,12.1393304 L29.785705,12.1393304 L29.785705,11.1393304 C29.785705,9.04063603 28.1375435,7.32689037 26.0649579,7.22183077 L25.8631013,7.2167267 L24.4738161,7.2167267 L24.292036,6.44639529 C23.7357969,4.08921504 21.680114,2.40226127 19.279261,2.29912859 L19.0458816,2.29412297 L18.5197586,2.29412297 C16.1403953,2.29412297 14.0447961,3.83249726 13.3208986,6.08022969 L13.2531215,6.30733676 L13.0509621,7.04203812 L10.6203781,7.04203812 C8.42607791,7.04203812 6.6346562,8.76696589 6.52810016,10.9348342 L6.52308578,11.1393304 L6.52308578,12.1393304 L1.05900946,12.1393304 C0.506724705,12.1393304 0.059009455,11.6916152 0.059009455,11.1393304 C0.059009455,10.6264946 0.445049645,10.2038233 0.94238833,10.1460582 L1.05900946,10.1393304 L4.605,10.139 L4.62132132,10.0433344 C5.12468404,7.27006666 7.50385468,5.15031374 10.3968495,5.04605938 L10.6203781,5.04203812 L11.568,5.042 L11.5734376,5.0289271 C12.6517584,2.27874935 15.2706519,0.403665045 18.2554723,0.298762414 L18.5197586,0.29412297 L19.0458816,0.29412297 Z" id="Path-6"></path>
                    <path d="M42.6534448,10.1393304 C43.2057296,10.1393304 43.6534448,10.5870457 43.6534448,11.1393304 C43.6534448,11.6521663 43.2674046,12.0748376 42.7700659,12.1326027 L42.6534448,12.1393304 L38.6662081,12.1393304 C38.1139233,12.1393304 37.6662081,11.6916152 37.6662081,11.1393304 C37.6662081,10.6264946 38.0522483,10.2038233 38.5495869,10.1460582 L38.6662081,10.1393304 L42.6534448,10.1393304 Z" id="Path-7"></path>
                </g>
                <path d="M66.1593899,10.2139199 C71.2297465,10.2139199 75.3569252,14.2521449 75.5001779,19.287847 L75.5040236,19.5585536 L75.5040236,20.622318 C75.5040236,21.0151804 75.2774775,21.35513 74.9478978,21.5186546 L76.5641575,21.5188514 C79.3250938,21.5188514 81.6240604,23.4967789 82.1213737,26.1129503 L82.1321625,26.175 L83.0986199,26.1757474 C86.637936,26.1757474 89.5754996,28.7521563 90.1381499,32.1318133 L90.1641625,32.312 L95.2290779,32.3124847 C95.7419137,32.3124847 96.164585,32.6985249 96.2223501,33.1958636 L96.2290779,33.3124847 C96.2290779,33.8253205 95.8430377,34.2479919 95.345699,34.305757 L95.2290779,34.3124847 L88.2353571,34.3124847 L88.2353571,33.3124847 C88.2353571,30.5482851 86.0519877,28.2940388 83.315757,28.1802538 L83.0986199,28.1757474 L80.2210536,28.1757474 L80.2210536,27.1757474 C80.2210536,25.2212495 78.6877306,23.6248782 76.7583714,23.5239203 L76.5641575,23.5188514 L71.8375016,23.5188514 L71.8375016,22.5188514 C71.8375016,21.8008614 71.2896937,21.2108187 70.5892407,21.1438863 L70.4562134,21.1375632 L69.137424,21.1375632 C68.5851392,21.1375632 68.137424,20.6898479 68.137424,20.1375632 C68.137424,19.6247274 68.5234642,19.202056 69.0208029,19.1442909 L69.137424,19.1375632 L70.4562134,19.1375632 C71.9501605,19.1375632 73.2178167,20.1064299 73.6651213,21.4501028 L73.6851625,21.518 L74.0601495,21.5186546 C73.7636642,21.3715502 73.5505594,21.0816729 73.5107514,20.7389392 L73.5040236,20.622318 L73.5040236,19.5585536 C73.5040236,15.5022244 70.2157191,12.2139199 66.1593899,12.2139199 C62.2080876,12.2139199 58.9855534,15.3341466 58.8213259,19.2450612 L60.4137332,19.2449925 C60.9660179,19.2449925 61.4137332,19.6927078 61.4137332,20.2449925 C61.4137332,20.7578283 61.027693,21.1804997 60.5303543,21.2382648 L60.4137332,21.2449925 L55.8441658,21.2449925 C52.7964788,21.2449925 50.3258403,23.715631 50.3258403,26.7633181 C50.3258403,27.3156028 49.878125,27.7633181 49.3258403,27.7633181 C48.7735555,27.7633181 48.3258403,27.3156028 48.3258403,26.7633181 C48.3258403,26.4770067 48.3418444,26.1944333 48.3730068,25.9164436 C42.9891295,25.4867373 40.1169658,27.6928194 39.4086912,32.7292025 L39.3704831,33.020802 L39.2635337,33.9000553 L22.851016,33.9000553 C22.2987313,33.9000553 21.851016,33.4523401 21.851016,32.9000553 C21.851016,32.3872195 22.2370562,31.9645482 22.7343949,31.906783 L22.851016,31.9000553 L37.5151625,31.9 L37.528486,31.8268115 C38.5774428,26.0314685 42.4694786,23.3436442 48.8689968,23.9515808 C49.9536262,21.2636221 52.547489,19.3459381 55.6008417,19.2488555 L55.8441658,19.2449925 L56.8198981,19.2455931 C56.9849619,14.2295745 61.1032227,10.2139199 66.1593899,10.2139199 Z" id="cloud-1" fill="#E5F5EB" fill-rule="nonzero"></path>
                <path d="M119.630162,0 C116.316454,0 113.630162,2.6862915 113.630162,6 C113.630162,9.3137085 116.316454,12 119.630162,12 C122.943871,12 125.630162,9.3137085 125.630162,6 C125.630162,2.6862915 122.943871,0 119.630162,0 Z M119.630162,2 C121.839301,2 123.630162,3.790861 123.630162,6 C123.630162,8.209139 121.839301,10 119.630162,10 C117.421024,10 115.630162,8.209139 115.630162,6 C115.630162,3.790861 117.421024,2 119.630162,2 Z" id="Oval-5-Copy" fill="#B2E0C4" fill-rule="nonzero"></path>
                <path d="M230.630162,79 C228.421024,79 226.630162,80.790861 226.630162,83 C226.630162,85.209139 228.421024,87 230.630162,87 C232.839301,87 234.630162,85.209139 234.630162,83 C234.630162,80.790861 232.839301,79 230.630162,79 Z M230.630162,81 C231.734732,81 232.630162,81.8954305 232.630162,83 C232.630162,84.1045695 231.734732,85 230.630162,85 C229.525593,85 228.630162,84.1045695 228.630162,83 C228.630162,81.8954305 229.525593,81 230.630162,81 Z" id="Oval-5-Copy-2" fill="#B2E0C4" fill-rule="nonzero"></path>
                <path d="M26.5413236,79.2947158 C27.054081,79.3036885 27.4699333,79.6970647 27.518988,80.1953379 L27.5236743,80.3120589 L27.4789266,82.8215595 L29.999264,82.8223289 C30.5515487,82.8223289 30.999264,83.2700442 30.999264,83.8223289 C30.999264,84.3351648 30.6132238,84.7578361 30.1158851,84.8156012 L29.999264,84.8223289 L27.4439266,84.8215595 L27.4002101,87.3675914 C27.3905472,87.9197916 26.9350671,88.359605 26.3828669,88.3499421 C25.8701096,88.3409694 25.4542572,87.9475932 25.4052025,87.4493199 L25.4005162,87.3325989 L25.4439266,84.8215595 L22.9249266,84.8223289 C22.3726418,84.8223289 21.9249266,84.3746137 21.9249266,83.8223289 C21.9249266,83.3094931 22.3109667,82.8868218 22.8083054,82.8290567 L22.9249266,82.8223289 L25.4789266,82.8215595 L25.5239805,80.2770664 C25.5336434,79.7248662 25.9891234,79.2850528 26.5413236,79.2947158 Z" id="Combined-Shape" fill="#B2E0C4" fill-rule="nonzero"></path>
                <path d="M183.541324,14.2947158 C184.054081,14.3036885 184.469933,14.6970647 184.518988,15.1953379 L184.523674,15.3120589 L184.478927,17.8215595 L186.999264,17.8223289 C187.551549,17.8223289 187.999264,18.2700442 187.999264,18.8223289 C187.999264,19.3351648 187.613224,19.7578361 187.115885,19.8156012 L186.999264,19.8223289 L184.443927,19.8215595 L184.40021,22.3675914 C184.390547,22.9197916 183.935067,23.359605 183.382867,23.3499421 C182.87011,23.3409694 182.454257,22.9475932 182.405203,22.4493199 L182.400516,22.3325989 L182.443927,19.8215595 L179.924927,19.8223289 C179.372642,19.8223289 178.924927,19.3746137 178.924927,18.8223289 C178.924927,18.3094931 179.310967,17.8868218 179.808305,17.8290567 L179.924927,17.8223289 L182.478927,17.8215595 L182.52398,15.2770664 C182.533643,14.7248662 182.989123,14.2850528 183.541324,14.2947158 Z" id="Combined-Shape" fill="#7FCB9C" fill-rule="nonzero"></path>
                <rect id="Rectangle" x="0" y="0" width="260" height="230"></rect>
            </g>
        </g>
    </g>
</svg>