<?xml version="1.0" encoding="UTF-8"?>
<svg  viewBox="0 0 32 32" version="1.1" xmlns="http://www.w3.org/2000/svg" xmlns:xlink="http://www.w3.org/1999/xlink">
    <title>A4E08F30-C7F8-4377-B99F-06125DA32119@2x</title>
    <defs>
        <path d="M14,0 C15.1045695,0 16,0.8954305 16,2 L16,26 C16,27.1045695 15.1045695,28 14,28 L2,28 C0.8954305,28 0,27.1045695 0,26 L0,2 C0,0.8954305 0.8954305,0 2,0 L14,0 Z M14,22 L2,22 L2,26 L14,26 L14,22 Z M8,23 C8.55228475,23 9,23.4477153 9,24 C9,24.5522847 8.55228475,25 8,25 C7.44771525,25 7,24.5522847 7,24 C7,23.4477153 7.44771525,23 8,23 Z M14,6 L2,6 L2,20 L14,20 L14,6 Z M14,2 L2,2 L2,4 L14,4 L14,2 Z" id="path-1"></path>
    </defs>
    <g id="Login" stroke="none" stroke-width="1" fill="none" fill-rule="evenodd">
        <g id="NedID-portal-login-with-QR-code-" transform="translate(-965.000000, -147.000000)">
            <g id="Group-2" transform="translate(965.000000, 147.000000)">
                <g id="Icon-colour-mask" transform="translate(8.000000, 2.000000)">
                    <mask id="mask-2" fill="white">
                        <use xlink:href="#path-1"></use>
                    </mask>
                    <use id="Mask" fill="#009639" fill-rule="nonzero" xlink:href="#path-1"></use>
                </g>
                <g id="5.-pieces/platform-agnostic/icons/miscellaneous/icon-qr" transform="translate(11.500000, 10.500000)" fill="#009639" fill-rule="nonzero">
                    <path d="M8.25,0.75 L5.625,0.75 L5.625,0 L9,0 L9,3.375 L8.25,3.375 L8.25,0.75 Z M0.75,0.75 L0.75,3.375 L0,3.375 L0,0 L3.375,0 L3.375,0.75 L0.75,0.75 Z M5.625,6.75 L6.375,6.75 L6.375,7.5 L4.875,7.5 L4.875,4.875 L6.375,4.875 L6.375,5.625 L6.75,5.625 L6.75,4.875 L7.5,4.875 L7.5,6.375 L5.625,6.375 L5.625,6.1875 L5.625,6.75 Z M5.625,6.1875 L5.625,5.625 L5.625,6.1875 Z M6.75,6.75 L7.5,6.75 L7.5,7.5 L6.75,7.5 L6.75,6.75 Z M8.25,8.25 L8.25,5.625 L9,5.625 L9,9 L5.625,9 L5.625,8.25 L8.25,8.25 Z M0.75,8.25 L3.375,8.25 L3.375,9 L0,9 L0,5.625 L0.75,5.625 L0.75,8.25 Z M1.5,1.5 L4.125,1.5 L4.125,4.125 L1.5,4.125 L1.5,1.5 Z M2.25,2.25 L2.25,3.375 L3.375,3.375 L3.375,2.25 L2.25,2.25 Z M4.875,1.5 L7.5,1.5 L7.5,4.125 L4.875,4.125 L4.875,1.5 Z M5.625,2.25 L5.625,3.375 L6.75,3.375 L6.75,2.25 L5.625,2.25 Z M1.5,4.875 L4.125,4.875 L4.125,7.5 L1.5,7.5 L1.5,4.875 Z M2.25,5.625 L2.25,6.75 L3.375,6.75 L3.375,5.625 L2.25,5.625 Z" id="colour"></path>
                </g>
            </g>
        </g>
    </g>
</svg>